<svg width="618" height="1236" viewBox="0 0 618 1236" fill="none" xmlns="http://www.w3.org/2000/svg">
<path d="M617.5 1065.5C864.371 1065.5 1064.5 865.371 1064.5 618.5C1064.5 371.629 864.371 171.5 617.5 171.5C370.629 171.5 170.5 371.629 170.5 618.5C170.5 865.371 370.629 1065.5 617.5 1065.5Z" stroke="#FFCECE"/>
<path d="M618 1235.5C959.036 1235.5 1235.5 959.036 1235.5 618C1235.5 276.964 959.036 0.5 618 0.5C276.964 0.5 0.5 276.964 0.5 618C0.5 959.036 276.964 1235.5 618 1235.5Z" stroke="#FFCECE"/>
<path d="M617.5 1011.5C834.548 1011.5 1010.5 835.548 1010.5 618.5C1010.5 401.452 834.548 225.5 617.5 225.5C400.452 225.5 224.5 401.452 224.5 618.5C224.5 835.548 400.452 1011.5 617.5 1011.5Z" stroke="#FFCECE"/>
<path d="M617.5 888.5C766.617 888.5 887.5 767.617 887.5 618.5C887.5 469.383 766.617 348.5 617.5 348.5C468.383 348.5 347.5 469.383 347.5 618.5C347.5 767.617 468.383 888.5 617.5 888.5Z" stroke="#FFCECE"/>
</svg>
