<svg width="25" height="25" viewBox="0 0 25 25" fill="none" xmlns="http://www.w3.org/2000/svg">
<path d="M12.5 2.25904C15.8133 2.25904 16.2651 2.25904 17.6205 2.25904C18.8253 2.25904 19.4277 2.56024 19.8795 2.71084C20.4819 3.01205 20.9337 3.16265 21.3855 3.61446C21.8374 4.06627 22.1386 4.51807 22.2892 5.12048C22.4398 5.57229 22.5904 6.1747 22.741 7.37952C22.741 8.73494 22.741 9.03615 22.741 12.5C22.741 15.9639 22.741 16.2651 22.741 17.6205C22.741 18.8253 22.4398 19.4277 22.2892 19.8795C21.988 20.4819 21.8374 20.9337 21.3855 21.3855C20.9337 21.8374 20.4819 22.1386 19.8795 22.2892C19.4277 22.4398 18.8253 22.5904 17.6205 22.741C16.2651 22.741 15.9639 22.741 12.5 22.741C9.03615 22.741 8.73494 22.741 7.37952 22.741C6.1747 22.741 5.57229 22.4398 5.12048 22.2892C4.51807 21.988 4.06627 21.8374 3.61446 21.3855C3.16265 20.9337 2.86145 20.4819 2.71084 19.8795C2.56024 19.4277 2.40964 18.8253 2.25904 17.6205C2.25904 16.2651 2.25904 15.9639 2.25904 12.5C2.25904 9.03615 2.25904 8.73494 2.25904 7.37952C2.25904 6.1747 2.56024 5.57229 2.71084 5.12048C3.01205 4.51807 3.16265 4.06627 3.61446 3.61446C4.06627 3.16265 4.51807 2.86145 5.12048 2.71084C5.57229 2.56024 6.1747 2.40964 7.37952 2.25904C8.73494 2.25904 9.18675 2.25904 12.5 2.25904ZM12.5 0C9.03615 0 8.73494 0 7.37952 0C6.0241 0 5.12048 0.301206 4.36747 0.602411C3.61446 0.903615 2.86145 1.35542 2.10843 2.10843C1.35542 2.86145 1.05422 3.46386 0.602411 4.36747C0.301206 5.12048 0.150602 6.0241 0 7.37952C0 8.73494 0 9.18675 0 12.5C0 15.9639 0 16.2651 0 17.6205C0 18.9759 0.301206 19.8795 0.602411 20.6325C0.903615 21.3855 1.35542 22.1386 2.10843 22.8916C2.86145 23.6446 3.46386 23.9458 4.36747 24.3976C5.12048 24.6988 6.0241 24.8494 7.37952 25C8.73494 25 9.18675 25 12.5 25C15.8133 25 16.2651 25 17.6205 25C18.9759 25 19.8795 24.6988 20.6325 24.3976C21.3855 24.0964 22.1386 23.6446 22.8916 22.8916C23.6446 22.1386 23.9458 21.5361 24.3976 20.6325C24.6988 19.8795 24.8494 18.9759 25 17.6205C25 16.2651 25 15.8133 25 12.5C25 9.18675 25 8.73494 25 7.37952C25 6.0241 24.6988 5.12048 24.3976 4.36747C24.0964 3.61446 23.6446 2.86145 22.8916 2.10843C22.1386 1.35542 21.5361 1.05422 20.6325 0.602411C19.8795 0.301206 18.9759 0.150602 17.6205 0C16.2651 0 15.9639 0 12.5 0Z" fill="#161616"/>
<path d="M12.5 6.0241C8.88554 6.0241 6.0241 8.88554 6.0241 12.5C6.0241 16.1145 8.88554 18.9759 12.5 18.9759C16.1145 18.9759 18.9759 16.1145 18.9759 12.5C18.9759 8.88554 16.1145 6.0241 12.5 6.0241ZM12.5 16.7169C10.241 16.7169 8.28313 14.9096 8.28313 12.5C8.28313 10.241 10.0904 8.28313 12.5 8.28313C14.759 8.28313 16.7169 10.0904 16.7169 12.5C16.7169 14.759 14.759 16.7169 12.5 16.7169Z" fill="#161616"/>
<path d="M19.1265 7.37952C19.9583 7.37952 20.6325 6.70525 20.6325 5.8735C20.6325 5.04174 19.9583 4.36747 19.1265 4.36747C18.2948 4.36747 17.6205 5.04174 17.6205 5.8735C17.6205 6.70525 18.2948 7.37952 19.1265 7.37952Z" fill="#161616"/>
</svg>
