<svg width="27" height="19" viewBox="0 0 27 19" fill="none" xmlns="http://www.w3.org/2000/svg">
<path fill-rule="evenodd" clip-rule="evenodd" d="M2.77669 18.4386C2.29528 18.2916 1.85602 18.0301 1.49599 17.6762C1.13596 17.3222 0.865721 16.8862 0.708072 16.4049C-0.192779 13.9173 -0.459698 3.53011 1.27527 1.47956C1.8527 0.812502 2.66796 0.40181 3.54408 0.336628C8.19848 -0.167606 22.5787 -0.100374 24.2303 0.504707C24.6948 0.656542 25.1192 0.912324 25.4717 1.25289C25.8241 1.59345 26.0955 2.00997 26.2655 2.47122C27.2498 5.04281 27.2832 14.388 26.1321 16.8587C25.8267 17.5019 25.3155 18.0228 24.6807 18.3378C22.9457 19.2118 5.07886 19.195 2.77669 18.4386ZM10.167 13.5644L18.5082 9.19434L10.167 4.7907V13.5644Z" fill="#161616"/>
</svg>
