<svg width="72" height="72" viewBox="0 0 72 72" fill="none" xmlns="http://www.w3.org/2000/svg">
<path fill-rule="evenodd" clip-rule="evenodd" d="M0 36C0 16.1496 16.1496 0 36 0C55.8504 0 72 16.1496 72 36C72 55.8504 55.8504 72 36 72C16.1496 72 0 55.8504 0 36ZM2.4 36C2.4 54.5268 17.4732 69.6 36 69.6C54.5268 69.6 69.6 54.5268 69.6 36C69.6 17.4732 54.5268 2.4 36 2.4C17.4732 2.4 2.4 17.4732 2.4 36ZM28.2755 17.009L54.6755 35.009C55.0031 35.2322 55.1999 35.603 55.1999 36.0002C55.1999 36.3974 55.0031 36.7682 54.6755 36.9914L28.2755 54.9914C28.0727 55.1294 27.8363 55.2002 27.5999 55.2002C27.4079 55.2002 27.2147 55.1546 27.0395 55.061C26.6459 54.8534 26.3999 54.4454 26.3999 54.0002V18.0002C26.3999 17.555 26.6459 17.147 27.0383 16.9394C27.4319 16.7318 27.9071 16.7594 28.2755 17.009ZM51.8699 36.0002L28.7999 20.2718V51.7286L51.8699 36.0002Z" fill="white"/>
</svg>
