<svg width="227" height="227" viewBox="0 0 227 227" fill="none" xmlns="http://www.w3.org/2000/svg">
<path d="M55.6616 99.0416C56.0568 99.3264 56.4564 99.6395 56.8561 99.9525C57.0034 99.7835 57.1551 99.643 57.3357 99.4977C57.7955 99.1041 58.5912 99.5275 58.3702 100.144C58.2696 100.422 58.1969 100.695 58.0918 100.944C67.8568 109.36 73.6513 124.545 72.3521 137.767C72.3932 137.847 72.4121 137.96 72.4545 138.04C74.0771 133.858 75.4979 129.678 76.7057 125.446L76.7013 125.418C76.659 125.338 76.6222 125.286 76.6366 125.196C76.677 124.725 76.713 124.225 76.7534 123.754C76.9724 113.931 72.7755 103.426 72.5832 93.7561C72.399 85.9439 76.2974 75.8465 85.3878 75.3969C85.4453 75.3874 85.4776 75.4114 85.5109 75.4351C85.5252 75.3456 85.5405 75.2559 85.5548 75.1665C85.6482 74.4834 86.5832 74.5068 86.6362 75.1954C88.9528 118.591 67.711 163.638 37.3445 194.502C42.3971 191.015 47.4201 187.533 52.2984 183.871C64.0882 175.085 75.5782 165.884 86.716 156.303C94.3345 147.987 100.036 138.79 104.683 129.007C106.868 109.196 101.227 85.7665 110.378 67.648C114.611 59.2684 125.085 39.0778 137.223 41.6506C137.533 41.0488 137.848 40.4753 138.243 39.8596C138.876 38.9152 140.359 39.8089 139.763 40.8053C139.553 41.1295 139.377 41.4775 139.2 41.8255C139.326 42.0664 139.339 42.3259 139.055 42.546C138.95 42.6209 138.879 42.7196 138.775 42.7945C135.803 49.9831 138.117 59.4559 137.137 66.9041C136.121 74.8519 134.35 82.6308 132.037 90.294C127.589 105.098 118.792 117.467 107.715 127.967C104.499 135.079 100.628 141.919 95.9527 148.104C98.5194 145.802 101.086 143.5 103.587 141.151C119.794 125.845 134.693 108.744 147.23 90.3412C148.382 88.6451 149.472 86.9298 150.563 85.2145C155.829 70.0752 156.744 53.9242 162.755 39.0714C169.599 22.1674 187.688 11.4947 201.264 0.62051C201.833 0.180198 202.984 0.284936 203.069 1.17162C206.395 36.9404 179.588 62.9899 154.001 84.1662C152.519 86.6998 151.003 89.2096 149.427 91.7003C144.689 99.1158 139.339 106.165 133.636 113.01C133.688 112.973 133.74 112.935 133.792 112.898C134.835 112.149 135.911 111.423 137.02 110.722C136.992 110.552 136.993 110.377 137.14 110.208C157.595 85.7068 195.736 71.3056 224.463 88.7162L224.492 88.7116C224.923 88.4969 225.237 88.8238 225.24 89.201C225.498 89.3625 225.724 89.5003 225.983 89.6619C226.472 89.9896 226.705 90.7073 226.352 91.2288C218.069 102.817 202.834 107.918 189.776 112.087C181.419 114.741 173.202 116.096 164.431 115.826C161.302 115.722 159.137 115.286 156.378 113.873C148.045 109.64 143.171 110.804 135.781 113.506C134.048 114.483 132.348 115.483 130.68 116.508C125.335 122.685 119.693 128.649 113.997 134.447C120.602 129.954 128.46 126.363 135.177 127.254C136.228 125.836 137.877 124.873 139.645 124.472C142.315 123.896 145.844 124.488 147.535 126.858C149.793 130.038 147.488 134.679 144.095 136.01C143.603 136.206 142.897 135.797 143.122 135.209C143.386 134.498 143.943 133.624 144.472 132.755C144.42 132.793 144.339 132.835 144.282 132.844C143.85 133.407 143.384 133.947 142.853 134.439C141.584 135.951 139.46 136.671 137.503 136.261C135.036 135.758 134.17 132.906 134.082 130.742C134.075 130.336 134.1 129.955 134.159 129.598C125.754 130.691 117.049 133.896 109.847 138.66C109.672 138.833 109.524 139.002 109.344 139.147C100.42 148.023 90.9694 156.343 81.2612 164.328C87.1095 161.991 93.256 160.418 99.494 159.237C112.729 153.82 125.067 146.631 139.923 145.31C150.763 144.346 173.309 140.563 181.465 150.372C181.756 150.732 181.687 151.208 181.449 151.536C185.617 163.846 163.556 169.554 155.575 171.83C148.676 173.784 141.407 175.247 134.213 175.74C118.325 176.793 103.298 166.582 87.6665 164.718C84.1765 165.63 80.6642 166.574 77.1454 167.664C69.5288 173.83 61.7632 179.788 53.9553 185.665C52.3721 186.85 50.7932 188.063 49.21 189.248C53.2792 188.505 57.3403 188.256 61.3951 188.328C61.4014 188.182 61.4633 188.026 61.6195 187.914C88.9543 173.427 126.78 195.121 136.956 221.594C137.147 222.057 137.012 222.485 136.59 222.757C136.354 222.911 136.117 223.066 135.88 223.219C135.458 223.491 135.036 223.762 134.615 224.033C134.406 224.184 134.147 224.022 134.031 223.838C126.793 228.926 117.132 224.036 109.833 220.625C101.182 216.589 92.1556 214.008 83.4468 210.156C73.2932 205.637 68.2178 195.999 58.5572 191.11C58.2089 190.934 58.0687 190.608 58.1081 190.311C54.1044 190.375 50.2265 190.681 46.6161 191.205C32.0477 202.24 17.1578 213.443 1.34438 222.354C0.813655 222.672 0.246992 221.863 0.735362 221.464C9.75847 213.562 19.7118 206.554 29.7441 199.678C29.7676 199.646 29.8196 199.608 29.8437 199.575C29.8249 199.462 29.8636 199.34 29.9877 199.204C36.689 192.778 41.3597 184.763 44.9986 176.305C47.6193 170.191 48.4023 163.326 50.2019 157.169C48.0689 156.932 46.1003 156.087 45.8517 154.182C45.2778 153.694 44.7479 153.111 44.3975 152.383C42.4119 148.55 43.9071 144.475 47.9844 143.062C48.1506 143.006 48.2925 142.983 48.4577 142.928C48.3967 142.909 48.3679 142.913 48.3068 142.894C47.7599 142.75 47.7545 141.996 48.2089 141.748C51.6566 139.856 55.8282 141.913 57.894 144.978C58.1838 145.338 58.4229 145.735 58.5475 146.15C58.6833 146.448 58.8466 146.741 58.9258 147.048C58.9904 147.27 58.9043 147.458 58.7524 147.599C58.7266 148.155 58.6098 148.697 58.404 149.223C58.3179 149.412 58.1706 149.581 58.052 149.745C59.1226 152.419 58.1267 155.077 55.2195 156.533C54.4901 156.883 53.366 157.123 52.1562 157.202C50.9519 167.591 47.5027 177.761 41.9156 186.591C52.2165 174.706 61.1899 161.989 68.3224 147.594C68.5856 147.058 68.8189 146.527 69.0821 145.99C70.122 143.063 70.6916 140.097 70.8585 137.165C68.3294 133.391 62.4838 132.678 59.3989 129.603C56.7926 126.974 55.2838 124.11 54.0516 120.62C52.038 114.991 51.9346 106.236 55.8251 101.135C55.5161 100.662 55.2117 100.218 54.9027 99.7448C54.5695 99.3049 55.2054 98.7377 55.6616 99.0416ZM83.0207 93.9023C82.393 95.601 81.794 97.2949 81.3826 99.0749C80.658 102.154 80.4173 105.533 80.5979 108.815C81.521 103.903 82.2897 98.9287 83.0207 93.9023ZM79.9971 111.584C78.4397 103.732 79.1877 94.6657 83.8613 87.9288C84.3821 84.1271 84.8661 80.2732 85.3492 76.4196C81.1265 79.4533 77.4875 81.0569 75.5971 86.4736C73.7031 91.8619 74.753 98.3727 75.5164 103.826C75.7805 105.642 76.0813 107.511 76.4065 109.346C75.8936 98.7695 75.9446 87.7245 83.6941 81.3045C84.1539 80.9109 84.7934 81.4468 84.4979 81.9591C80.2213 89.5324 78.2474 95.6888 78.1801 104.471C78.138 109.619 78.4883 114.674 78.201 119.745C78.8996 117.047 79.4483 114.316 79.9971 111.584ZM109.362 117.797C112.096 110.763 114.445 103.501 116.713 96.106C120.175 84.743 123.287 73.3786 125.834 61.7566C126.468 58.8371 127.239 56.0406 128.33 53.425C114.202 71.8817 114.361 94.6845 109.362 117.797ZM113.213 113.72C121.484 94.8428 125.461 75.4965 130.437 55.6699C127.862 62.0684 126.366 68.8448 124.571 75.9306C121.541 87.8048 117.766 99.5668 114.062 111.23C113.788 112.058 113.487 112.891 113.213 113.72ZM133.08 45.5428C133.302 44.752 133.518 43.9328 133.74 43.1419C119.116 46.2561 109.218 74.1667 107.976 85.4039C106.83 95.6091 108.68 106.173 108.302 116.458C113.524 90.5792 112.394 64.0989 133.08 45.5428ZM133.527 76.0835C135.204 68.0871 136.004 60.7842 135.349 52.7574C135.141 50.206 135.134 47.9997 135.552 45.8993C135.062 46.6464 134.6 47.389 134.17 48.1552C130.171 74.2142 123.077 101.469 109.432 124.001C109.408 124.034 109.38 124.039 109.351 124.043C109.145 124.57 108.94 125.097 108.729 125.596C121.767 111.381 129.513 95.203 133.527 76.0835ZM199.414 6.46633C195.068 6.20905 184.791 16.2605 182.79 17.9194C172.892 25.9928 165.867 35.4617 161.953 47.6237C158.821 57.4231 158.194 67.6025 155.365 77.295C155.484 77.1306 155.57 76.9424 155.656 76.7543C162.734 49.0371 177.583 25.4976 199.243 6.66819C199.291 6.60243 199.367 6.5321 199.414 6.46633ZM161.077 67.0794C166.404 57.3617 171.566 47.5253 177.504 38.1736C181.888 30.0021 187.313 22.1563 192.996 14.6465C185.583 22.6096 178.413 30.8239 172.574 40.0724C167.26 48.4231 164.324 57.8133 161.077 67.0794ZM200.667 7.01943C193.364 18.9148 184.71 30.1858 176.857 41.7343C172.133 49.9607 167.795 58.4152 163.392 66.8222C167.957 60.8578 172.71 54.9794 177.157 49.005C186.841 35.9995 193.906 21.7318 200.742 7.12345C200.738 7.09515 200.7 7.04316 200.667 7.01943ZM201.322 9.81819C201.339 9.37985 201.308 9.00721 201.281 8.66294C190.918 32.7858 176.569 56.3608 159.659 76.8637C178.966 57.5136 199.876 39.4443 201.322 9.81819ZM182.256 96.4832C174.572 97.7225 166.719 99.8898 159.059 102.723C179.192 98.9523 200.201 98.9905 219.508 90.9968C208.854 89.6947 192.434 94.8412 182.256 96.4832ZM215.884 88.9093C205.279 88.2674 195.632 87.6161 184.475 89.503C173.063 91.4311 162.709 96.6737 153.067 102.905C162.7 99.1439 172.922 96.5075 181.832 94.5764C190.066 92.7835 198.462 92.533 206.692 90.5372C209.689 89.8214 212.815 88.9978 215.884 88.9093ZM146.654 108.412C151.133 107.864 160.989 113.419 164.452 113.79C180.532 115.553 199.532 107.463 213.171 99.8611C212.877 100.025 222.414 94.7685 222.433 91.2802C211.833 97.5209 199.578 99.0912 187.527 101.209C174.286 103.519 160.995 105.344 147.721 107.456C146.884 107.853 146.041 108.221 145.203 108.617C145.685 108.54 146.167 108.462 146.654 108.412ZM145.434 106.082C154.256 98.7342 164.995 93.8943 175.823 90.1436C191.006 84.9061 203.768 86.6523 218.749 88.0985C215.336 86.4128 211.721 85.2823 208.039 84.2787C199.096 81.8585 189.481 83.2061 180.678 85.4394C166.343 89.0877 154.936 97.8985 143.561 106.733C144.162 106.491 144.796 106.272 145.434 106.082ZM144.368 131.029C144.614 130.931 144.827 130.81 144.988 130.726C145.092 130.651 145.215 130.689 145.333 130.699C145.449 130.157 145.452 129.634 145.256 129.143C145.023 128.6 144.53 128.244 143.964 127.987C143.911 128.199 143.797 128.391 143.523 128.493C142.969 128.67 142.453 128.898 141.942 129.155C141.989 129.264 142.059 129.339 142.077 129.452C142.183 129.929 142.119 130.434 142.306 130.868C142.506 131.387 143.063 131.414 143.654 131.29C143.839 130.998 144.127 130.981 144.368 131.029ZM139.03 132.384C139.008 132.968 138.978 133.322 139.35 133.465C139.902 133.638 140.573 133.471 141.245 133.13C141.151 133.088 141.094 133.097 141 133.054C140.087 132.62 139.606 131.623 139.588 130.609C139.407 130.755 139.251 130.867 139.071 131.012C139.087 131.474 139.042 131.918 139.03 132.384ZM135.255 147.747C126.316 148.782 118.289 152.401 110.28 156.133C131.279 150.335 155.774 149.985 177.219 149.836C165.77 143.783 146.985 146.349 135.255 147.747ZM178.692 150.674C166.492 151.684 154.303 152.226 142.102 153.41C134.426 154.154 126.822 155.526 119.219 156.723C120.164 156.63 121.137 156.531 122.082 156.436C141.065 154.739 159.909 152.716 178.819 150.74C178.786 150.717 178.725 150.697 178.692 150.674ZM180.084 151.727C164.75 156.756 147.287 156.698 131.318 157.792C120.498 158.522 110.222 159.918 100.051 161.965C107.422 162.402 114.794 163.915 122.159 164.672C141.326 166.635 162.838 160.231 179.786 151.862C179.894 151.815 179.984 151.831 180.102 151.84C180.093 151.784 180.088 151.755 180.084 151.727ZM141.302 172.796C151.811 171.217 179.274 166.903 180.001 153.019C166.564 160.965 150.859 164.777 135.357 166.058C121.518 167.186 108.136 163.943 94.4326 163.743C110.329 166.348 124.41 175.376 141.302 172.796ZM70.6086 197.472C77.5857 205.379 86.7571 209.215 96.5111 212.521C107.034 216.081 121.559 226.953 132.69 222.747C122.72 221.886 114.175 217.427 105.444 212.532C93.8655 206.036 81.4151 201.712 69.4446 196.207C69.8622 196.634 70.2189 197.042 70.6086 197.472ZM65.8946 192.772C75.8874 196.475 85.7313 200.696 95.3905 205.209C107.808 210.96 118.691 219.458 132.424 221.454C110.37 209.705 88.5775 200.848 65.2641 192.293C65.4617 192.436 65.6638 192.606 65.8946 192.772ZM132.859 220.367C119.148 201.55 89.3326 191.46 63.8344 190.462C87.8445 195.04 112.572 206.765 132.859 220.367ZM95.0965 195.09C108.769 199.42 127.359 205.744 134.651 219.206C132.363 210.253 112.218 196.453 107.986 194.028C94.017 186.058 79.8883 186.652 64.8078 188.562C75.0442 189.264 85.2554 191.973 95.0965 195.09ZM55.1008 147.142C55.0677 147.119 55.0677 147.119 55.0631 147.09C55.0631 147.09 55.0021 147.071 54.871 146.976C54.8044 146.928 54.4282 146.757 54.3617 146.71C53.8624 146.5 53.3729 146.346 52.8627 146.254C52.0474 146.067 50.7677 146.07 49.8373 146.249C47.7716 146.611 46.5907 147.586 47.0271 149.752C47.0595 149.95 47.1394 150.082 47.195 150.247C48.1893 149.738 49.2518 149.655 50.3481 149.419C52.0645 149.055 53.6775 148.418 55.0389 147.297C55.0909 147.26 55.1521 147.279 55.1763 147.246C55.1432 147.223 55.1385 147.194 55.1008 147.142ZM56.6547 151.365C55.9101 151.978 55.2096 152.323 54.4059 152.57C53.8588 153.325 53.1987 153.926 52.4365 154.427C52.421 154.516 52.4309 154.572 52.4157 154.662C52.817 154.626 53.1951 154.623 53.5921 154.559C55.4781 154.168 56.4381 152.909 56.6547 151.365ZM70.4031 129.832C66.2835 125.036 63.855 118.458 63.4077 112.256C63.3943 112.171 63.4374 112.077 63.4894 112.04C62.0282 109.836 60.4673 107.735 58.9019 105.606C61.0638 116.119 62.9831 126.033 70.8279 134.091C70.7695 132.648 70.6024 131.252 70.4031 129.832ZM62.2044 129.325C64.156 130.782 66.2656 131.778 68.086 132.965C61.3557 125.686 55.6061 114.386 57.826 104.705C57.8647 104.582 57.9356 104.484 58.0442 104.437C57.7865 104.101 57.5575 103.76 57.2998 103.424C54.5356 112.438 53.4023 122.729 62.2044 129.325Z" fill="#FFCECE"/>
</svg>
